<?xml version="1.0" encoding="utf-8"?>
<!-- Generator: Adobe Illustrator 22.0.1, SVG Export Plug-In . SVG Version: 6.00 Build 0)  -->
<svg version="1.1" id="圖層_1" xmlns="http://www.w3.org/2000/svg" xmlns:xlink="http://www.w3.org/1999/xlink" x="0px" y="0px"
	 viewBox="0 0 624.5 790.1" style="enable-background:new 0 0 624.5 790.1;" xml:space="preserve">
<style type="text/css">
	.st0{fill-rule:evenodd;clip-rule:evenodd;fill:#FFFFFF;}
	.st1{fill:#333330;}
	.st2{fill:#FFFFFF;}
	.st3{fill:#3A3A37;}
</style>
<g>
	<g>
		<g>
			<path class="st0" d="M378.6,227.7c0,6.8,0,20.4,0,20.4s-43.7,0-43.9,0c-5.4,0-8.7,4.4-8.7,9.8s2.8,9.8,8.2,9.8
				c0.2,0,44.4-0.1,44.4-0.1V284c0,6.1,4.9,11,11,11s11-4.9,11-11v-16.5c0,0,44,0.1,44.2,0.1c5.4,0,10.8-4.4,10.8-9.8
				s-5.9-9.8-11.3-9.8c-0.2,0-43.7,0-43.7,0s0-11.4,0-22.8c4-3.6,8.7-6.4,12.4-12.8c15.8,0,37.9,0.1,37.9,0.1
				c6.1-0.4,10.1-5.2,10.1-10.7c0-5.5-3.4-9.6-9.5-10c0,0-19.4-0.2-32-0.2c0.5-12.5,1.3-23.4,1.3-39.4c0-5.2-5-9.6-10.2-9.6
				c-5.2,0-10,4-10,9.2c0,1,0,2,0,2.9c1,31.7-3,57.6-33.4,53.4c-22.8-3.1-20.6-44.8-20.6-54.4c0-5-4.9-9-9.9-9c-5,0-11.1,4-11.1,9
				C324.9,199.8,324.6,229.7,378.6,227.7z"/>
		</g>
		<g>
			<path class="st1" d="M390.1,297.5c-7.4,0-13.5-6.1-13.5-13.5v-14c-9.4,0-41.9,0.1-42.1,0.1c-6.4,0-10.9-5-10.9-12.3
				c0-7.1,4.8-12.3,11.4-12.3c0.2,0,32.3,0,41.6,0v-15.3c-0.9,0-1.7,0-2.5,0c0,0,0,0,0,0c-17.8,0-30.4-3.9-38.3-12
				c-13.2-13.4-12.8-37-12.3-64.5c0-6.4,7.2-11.5,13.3-11.5c6.6,0,12.5,5.4,12.5,11.5c0,0.6,0,1.4,0,2.3c-0.1,11.6-0.5,47,18.6,49.7
				c9.7,1.3,16.8-0.5,21.7-5.5c9-9.3,9.6-29.1,9.1-45.3l0-3c0-6.5,5.5-11.7,12.3-11.7c6.7,0,12.5,5.6,12.5,12.1
				c0,11.5-0.4,20.3-0.8,28.9c-0.1,2.6-0.2,5.2-0.4,7.9c12.4,0,29.2,0.2,29.4,0.2c0,0,0.1,0,0.1,0c7.2,0.4,11.8,5.3,11.8,12.5
				c0,7.1-5.3,12.8-12.4,13.2c-0.1,0-0.1,0-0.2,0c-0.2,0-20.9-0.1-36.3-0.1c-3,4.6-6.4,7.5-9.4,10c-0.6,0.5-1.1,0.9-1.7,1.4v19.2
				c9.2,0,40.8,0,41,0c6.4,0,13.6,5.2,13.6,12.3c0,6.5-6.1,12.3-13.1,12.3c-0.1,0-32.1-0.1-41.4-0.1v14
				C403.6,291.4,397.6,297.5,390.1,297.5z M379.1,265.3c0.7,0,1.3,0.1,1.8,0.6c0.5,0.5,0.7,1,0.7,1.6V284c0,4.7,3.8,8.5,8.5,8.5
				c4.7,0,8.5-3.8,8.5-8.5v-16.5c0-0.7,0.3-1.3,0.7-1.8c0.5-0.5,1.1-0.8,1.8-0.7c0,0,43.6,0.1,43.9,0.1c4.3,0,8.1-3.5,8.1-7.3
				c0-4-4.7-7.4-8.6-7.4c-0.2,0-43.5-0.1-43.5-0.1c0,0,0,0,0,0c-0.7,0-1.3-0.1-1.8-0.6c-0.5-0.5-0.7-1-0.7-1.6v-22.8
				c0-0.7,0.3-1.4,0.8-1.9c0.9-0.8,1.8-1.5,2.7-2.3c3.2-2.7,6.3-5.3,9-9.9c0.4-0.8,1.3-1.2,2.2-1.2c15.1,0,36.2,0.1,37.7,0.1
				c5-0.3,7.6-4.4,7.6-8.2c0-4.5-2.6-7.2-7.1-7.5c-1.2,0-19.8-0.2-31.9-0.2c-0.7,0-1.3-0.3-1.8-0.8c-0.5-0.5-0.7-1.1-0.7-1.8
				c0.1-3.6,0.3-7.1,0.5-10.6c0.4-8.5,0.8-17.4,0.8-28.7c0-3.7-3.6-7.1-7.5-7.1c-3.9,0-7.3,3.1-7.3,6.7v2.9
				c0.6,18.2-0.2,38.3-10.5,48.9c-4.8,5-11.4,7.5-19.5,7.5c0,0,0,0,0,0c-2,0-4.2-0.2-6.5-0.5c-23.5-3.2-23-41.9-22.9-54.7
				c0-0.9,0-1.6,0-2.3c0-3.3-3.6-6.5-7.5-6.5c-3.7,0-8.3,3.1-8.3,6.5c-0.4,26.3-0.8,49,10.9,60.9c7,7.1,18.3,10.5,34.7,10.5
				c0,0,0,0,0,0c1.6,0,3.3,0,5-0.1c0.7,0,1.3,0.2,1.8,0.7c0.5,0.5,0.8,1.1,0.8,1.8v20.4c0,0.7-0.3,1.3-0.7,1.8
				c-0.5,0.5-1.1,0.7-1.8,0.7h0c0,0-43.9,0-44.1,0c-4.4,0-6.4,3.8-6.4,7.3c0,3.5,1.5,7.4,5.9,7.4
				C334.9,265.2,379.1,265.3,379.1,265.3C379.1,265.3,379.1,265.3,379.1,265.3z"/>
		</g>
	</g>
	<g>
		<g>
			<g>
				<path class="st2" d="M230,385.1c-0.8-0.1-1.4-0.2-2.4-0.3v0C228.6,384.9,229.2,385,230,385.1z"/>
			</g>
			<g>
				<path class="st1" d="M230.5,387.6c-0.1,0-0.2,0-0.3,0l-0.5-0.1c-0.5-0.1-1-0.1-1.7-0.2c-1.3-0.1-2.3-1.2-2.3-2.5
					c0-0.7,0.3-1.4,0.8-1.9c0.5-0.5,1.2-0.7,1.9-0.7c0.9,0.1,1.5,0.2,2.1,0.3l0.4,0.1c1.4,0.2,2.3,1.5,2.1,2.8
					C232.8,386.7,231.7,387.6,230.5,387.6z"/>
			</g>
		</g>
		<g>
			<g>
				<path class="st2" d="M281.6,425.4c-0.1-0.2-0.2-0.4-0.2-0.6c-0.6-1.4-1.4-2.8-2-4c-7.6-17.5-26.8-32-51.8-35.1v-0.8v-12
					l30.3-0.2c6.1-0.2,10.8-2.6,10.8-8.2c0-5.6-2.9-8.2-9-8.2c0,0-74.7,0-74.8,0c-5.7,0-10.2,2.5-10.2,8.2c0,5.7,2.2,8.8,7.9,8.8
					c0.1,0,25-0.4,25-0.4v12.7v0c0,0,0,0-0.1,0.1c-11.8,2.3-22.6,7.7-32.1,15.5c-5.1,5.1-9.3,11.1-12.3,17.1
					c-1.5,3.1-4.7,12.5-5.6,21.6c-2.4,24.9,0.2,51.5,8.1,64.5c10.9,18.1,36.3,29.8,62.2,28.2c13.9-0.9,27-6.2,37.3-14.6
					c2.1-1.9,4-3.9,5.8-6.1c5.5-6.5,9.9-14,11.9-23.2C286.9,470.4,287.4,442.1,281.6,425.4z M254.7,497.8
					c-6.8,8.7-17.4,13.6-31,13.9c-29.5,0.6-41.8-15.5-45-38.5c28,0,56.1,0,84.1,0C262.2,482.3,259.5,491.2,254.7,497.8z
					 M262.9,453.3c-28.3,0-56.6,0-84.9,0c-0.4-26,13.8-41.7,35.9-43.8c18.8-1.8,33.7,3.6,42.1,15.5
					C260.7,432.3,263.2,441.3,262.9,453.3z"/>
			</g>
			<g>
				<path class="st1" d="M223,535.3C223,535.3,223,535.3,223,535.3c-25,0-48.9-11.9-59.6-29.6c-7.8-13-11.1-38.9-8.4-66.1
					c0.9-9,4-18.7,5.9-22.5c3.2-6.4,7.6-12.6,12.9-17.8c0.1-0.1,0.1-0.1,0.2-0.2c9.7-7.9,20.3-13.2,31.7-15.7v-8.1
					c-7.5,0.1-22.6,0.3-22.7,0.3c-6.9,0-10.7-4.1-10.7-11.5c0-6.7,5-11,12.7-11h74.8c7.4,0,11.6,4,11.6,11c0,6.5-5,10.7-13.1,11
					l-27.6,0.2v8.1c23.6,3.6,43.1,17.4,51.4,36.3c0.2,0.4,0.3,0.8,0.5,1.2c0.4,0.9,0.8,1.9,1.2,2.9l0.1,0.3c0.1,0.1,0.1,0.3,0.2,0.4
					c6.2,18,5.3,46.8,1.3,64.8c-2,8.8-6,16.7-12.5,24.3c-1.8,2.2-3.9,4.3-6.1,6.3c0,0-0.1,0.1-0.1,0.1
					c-10.9,8.9-24.7,14.2-38.7,15.1C226.3,535.3,224.6,535.3,223,535.3z M177.2,403c-4.8,4.8-8.9,10.5-11.8,16.4
					c-1.5,3-4.5,12.1-5.4,20.8c-2.5,25.8,0.6,51.1,7.7,63c9.8,16.2,32,27.1,55.3,27.1c0,0,0,0,0,0c1.5,0,3.1,0,4.6-0.1
					c13-0.8,25.7-5.8,35.8-13.9c2-1.8,3.9-3.8,5.6-5.8c5.9-6.9,9.6-14.2,11.4-22.2c3.9-17.6,4.6-45.6-1.1-62.1l-0.2-0.6
					c-0.3-0.8-0.7-1.7-1.1-2.6c-0.2-0.4-0.4-0.8-0.5-1.2c-7.8-17.9-26.8-30.8-49.6-33.6c-1.3-0.2-2.2-1.2-2.2-2.5v-12.8
					c0-1.4,1.1-2.5,2.5-2.5l30-0.2c3-0.1,8.2-1.1,8.2-6c0-4.2-1.9-6-6.6-6h-74.8c-2.9,0-7.7,0.8-7.7,6c0,5.4,2.3,6.5,5.7,6.5
					c0.4,0,25.2-0.3,25.2-0.3c0.7,0,1.3,0.3,1.8,0.7c0.5,0.5,0.7,1.1,0.7,1.8v12.7c0,0.3-0.1,2.3-2.5,2.6
					C197.1,390.3,186.6,395.3,177.2,403z M222.1,513.8c-26.7,0-42.1-13.7-45.8-40.8c-0.1-0.7,0.1-1.4,0.6-2c0.5-0.5,1.2-0.9,1.9-0.9
					h84.1c0.7,0,1.4,0.3,1.8,0.8c0.5,0.5,0.7,1.2,0.7,1.9c-0.7,10.2-3.7,19.2-8.6,26.1c0,0,0,0.1-0.1,0.1
					c-7.3,9.3-18.7,14.4-33,14.7C223.2,513.8,222.6,513.8,222.1,513.8z M181.6,475.3c4.1,23.4,17.4,34.1,42,33.6
					c12.7-0.3,22.8-4.7,29.1-12.8c3.9-5.5,6.5-12.7,7.4-20.8H181.6z M262.9,455.3h-84.9c-1.4,0-2.5-1.1-2.5-2.5
					c-0.4-26.2,14.2-43.8,38.1-46.1c2.4-0.2,4.8-0.3,7.1-0.3c16.6,0,29.5,5.8,37.3,16.8c5.2,8,7.7,18,7.4,29.7
					C265.3,454.2,264.2,455.3,262.9,455.3z M180.4,450.3h79.9c-0.1-9.6-2.3-17.8-6.5-24.3c-6.7-9.5-18.2-14.6-33.1-14.6
					c-2.2,0-4.4,0.1-6.7,0.3C193.4,413.7,181,428,180.4,450.3z"/>
			</g>
		</g>
	</g>
	<g>
		<g>
			<path class="st0" d="M444.6,449.6c6.1-0.2,9.4-4.5,9.4-9.8c0-5.3-3.3-9.5-9.4-9.8l-37-0.2c0.9-4.7,1.5-8.6,1.8-12.2l26.5,0
				c6.1-0.2,10-4.8,10-10.4c0-5.6-3.9-10.2-10-10.4l-23.6-0.1c0.8-8.3,0.8-14.3,1.2-20.2c0.4-7.4,10.2-14.4,17.6-10.2
				c4.3,2.5,5.6,5.4,6.6,7.9c2.2,5.3,4.2,8.6,8.9,8.7c7.4,0.2,10.4-4.8,10.4-9.7c0.1-6.4-1.9-11.4-9.4-19
				c-18.8-18.8-55.4-4.9-56.3,19.4c-0.3,7-0.8,10.8-1.5,23l-12.3,0.3c0,0,0.1,0-0.1,0c-5.7,0-10.2,4.6-10.2,10.4
				c0,5.7,4.4,10.4,10.1,10.4c0.1,0,9.1,1.8,9.1,1.8c-0.1,5-0.9,12.6-1.8,15.6h-31.1v-28.5c0-11.6-4.6-16.5-16.2-16.5h-12.7
				c-11.6,0-25.2,4.9-25.2,16.5v41.5c0,11.6,13.6,25,25.2,25h12.7c10.4,0,19.1-7,20.7-17h18.4c-9.3,18-24.9,36.2-49.8,54.1l0.2-0.9
				c-3,1.9-5,4.7-5,8.6c0,6,4.9,10.6,10.9,10.6c3,0,5.4-1.3,7.4-3.3c5.1-4,29.5-23.4,46.8-50.8l0.4,47.1c0,0,0-0.2,0-0.1
				c0,6,4.9,10.8,10.9,10.8c6,0,10.9-4.7,10.9-10.7c0,0,0,0.1,0,0.1l-0.3-71.9L444.6,449.6z M335.6,452.5c0,0.9-0.8,1.7-1.7,1.7
				h-14.6c-0.9,0-1.7-0.8-1.7-1.7V411c0-0.9,0.8-1.7,1.7-1.7h14.6c0.9,0,1.7,0.8,1.7,1.7V452.5z"/>
		</g>
		<g>
			<path class="st1" d="M398.4,534.7c-7.4,0-13.4-6-13.4-13.3c0,0,0-0.1,0-0.1l-0.3-38.6c-15.4,22-34.6,38.2-42.7,44.6
				c-2.7,2.6-5.7,3.9-9,3.9c-7.5,0-13.4-5.8-13.4-13.2c0-4.4,2.1-8.2,6.2-10.8c0.4-0.3,1-0.4,1.5-0.4c20.3-14.8,35.5-31.1,45.3-48.5
				h-12.2c-2.7,10.1-11.7,17-22.8,17h-12.7c-12.9,0-27.2-14.1-27.2-27v-41.5c0-12.8,13.7-19.5,27.2-19.5h12.7
				c12.9,0,19.2,6.4,19.2,19.5v25.5h26.1c0.5-2.8,1-7.1,1.2-10.8c-2.8-0.5-6-1-6.7-1.1c-7-0.1-12.5-5.7-12.5-12.9
				c0-7.1,5.7-12.9,12.7-12.9c0.1,0,0.2,0,0.3,0l9.8-0.2c0.3-4.2,0.5-7.3,0.7-9.9c0.3-4,0.5-6.9,0.7-10.7
				c0.7-18.3,19.6-30.6,36.8-30.6c9.2,0,17.6,3.4,23.7,9.5c7.5,7.5,10.3,13.2,10.2,20.8c0,6.1-4,12.3-13,12.1
				c-6.5-0.2-9.1-5.2-11.2-10.3c-0.9-2.1-1.9-4.6-5.6-6.7c-1.1-0.6-2.3-1-3.6-1c-4.9,0-9.9,4.5-10.2,9.1c-0.1,2.1-0.2,4.2-0.3,6.4
				c-0.1,3.3-0.3,7-0.6,11.2l20.9,0.1c7.3,0.2,12.5,5.7,12.5,12.9c0,7.2-5.2,12.6-12.4,12.9l-24.4,0c-0.2,2.1-0.6,4.5-1.1,7.2
				l34,0.2c7.1,0.2,11.9,5.2,11.9,12.3c0,7.1-4.7,12-11.8,12.3l-33.2,0l0.3,69.1c0,0.1,0,0.1,0,0.2
				C411.8,528.9,405.9,534.7,398.4,534.7z M389.9,521.7c0.1,4.5,3.8,8,8.4,8c4.7,0,8.3-3.5,8.4-8c0,0,0-0.1,0-0.1l-0.3-71.9
				c0-0.7,0.3-1.3,0.7-1.8c0.5-0.5,1.1-0.7,1.8-0.7l35.6,0c4.3-0.1,6.9-2.9,6.9-7.3c0-4.4-2.6-7.1-7-7.3l-36.9-0.2
				c-0.7,0-1.4-0.3-1.9-0.9c-0.5-0.6-0.7-1.3-0.5-2c0.9-5.1,1.5-8.8,1.8-12c0.1-1.3,1.2-2.3,2.5-2.3l26.5,0c4.5-0.1,7.5-3.3,7.5-7.9
				c0-4.6-3-7.7-7.6-7.9l-23.5-0.1c-0.7,0-1.4-0.3-1.8-0.8c-0.5-0.5-0.7-1.2-0.6-1.9c0.5-5.3,0.7-9.5,0.8-13.6
				c0.1-2.3,0.2-4.4,0.3-6.5c0.4-7.2,7.7-13.8,15.2-13.8c2.2,0,4.2,0.5,6.1,1.6c5.2,3,6.7,6.7,7.7,9.1c2.2,5.5,3.7,7.1,6.7,7.2
				l0.3,0c7,0,7.5-5.5,7.5-7.2c0.1-5.5-1.3-9.8-8.7-17.2c-6.6-6.6-14.6-8-20.2-8c-14.9,0-31.3,10.4-31.8,25.8
				c-0.2,4-0.4,6.9-0.7,10.9c-0.2,3-0.5,6.8-0.9,12.2c-0.1,1.3-1.1,2.3-2.4,2.3l-12.3,0.3c-0.1,0-0.2,0-0.4,0
				c-4.2,0.1-7.5,3.5-7.5,7.9c0,4.4,3.4,7.9,7.6,7.9c0.3,0,0.3,0,9.5,1.5c1.2,0.2,2.1,1.3,2.1,2.5c-0.1,5.3-1,12.8-1.9,16
				c-0.3,1.1-1.3,1.8-2.4,1.8h-30.6c-1.4,0-2.5-1.1-2.5-2.5v-28c0-10.3-4.1-14.5-14.2-14.5h-12.7c-8.9,0-22.2,3.9-22.2,14.5v41.5
				c0,10.3,11.8,22,22.2,22h12.7c9.3,0,16.8-6.1,18.3-14.9c0.2-1.2,1.2-2.1,2.5-2.1h18.4c0.9,0,1.7,0.5,2.1,1.2
				c0.5,0.7,0.5,1.7,0.1,2.4c-10.3,20-27.3,38.5-50.5,55.2c-0.4,0.3-1,0.5-1.5,0.5c-1.6,1.5-2.3,3.2-2.3,5.3c0,4.6,3.7,8.2,8.4,8.2
				c2,0,3.9-0.8,5.6-2.5c0.1-0.1,0.1-0.1,0.2-0.2c8.7-6.8,30.5-25.3,46.2-50.2c0.6-0.9,1.7-1.4,2.8-1.1c1.1,0.3,1.8,1.3,1.8,2.4
				l0.4,47.1C389.9,521.6,389.9,521.6,389.9,521.7z M334.4,456.3h-14.6c-2.3,0-4.2-1.9-4.2-4.2v-41.6c0-2.3,1.9-4.2,4.2-4.2h14.6
				c2.3,0,4.2,1.9,4.2,4.2V452C338.6,454.4,336.7,456.3,334.4,456.3z M320.6,451.3h13v-40h-13V451.3z"/>
		</g>
	</g>
	<g>
		<g>
			<path class="st0" d="M439.8,472.8c-2.2-2.4-4.5-3.7-7.6-3.7c-5.4,0-9.8,4.4-9.8,9.8c0,3.2,2,5.8,3.9,7.8l24.5,28
				c1.8,1.4,4,2,6.5,2c5.7,0,10.3-4.6,10.3-10.3c0-1.9-0.6-3.8-1.5-5.3L439.8,472.8z"/>
		</g>
		<g>
			<path class="st1" d="M457.3,519.2c-3.1,0-5.9-0.9-8-2.6c-0.1-0.1-0.2-0.2-0.3-0.3l-24.4-27.9c-3.1-3.1-4.6-6.2-4.6-9.5
				c0-6.8,5.5-12.3,12.3-12.3c3.6,0,6.6,1.4,9.5,4.5l26.3,28.3c0.1,0.1,0.2,0.3,0.3,0.4c1.2,2,1.9,4.3,1.9,6.6
				C470.1,513.5,464.3,519.2,457.3,519.2z M452.5,512.9c1.5,1.1,3.4,1.4,4.7,1.4c4.3,0,7.8-3.5,7.8-7.8c0-1.3-0.3-2.6-1-3.8
				l-26.1-28.1c-1.9-2-3.6-2.9-5.8-2.9c-4,0-7.3,3.3-7.3,7.3c0,1.9,1,3.9,3.2,6c0,0,0.1,0.1,0.1,0.1L452.5,512.9z"/>
		</g>
	</g>
	<g>
		<g>
			<path class="st0" d="M324.5,326.7c0,0,127.9,0,128,0c6.1,0,11.1-4.9,11.1-11c0-6.1-5.2-11-11.2-11c-0.2,0-128,0-128,0
				c-4.7,0.3-10.5,5.1-10.5,11C314,321.6,319.9,326.4,324.5,326.7z"/>
		</g>
		<g>
			<path class="st1" d="M452.6,329.2c-0.2,0-128,0-128,0c0,0-0.1,0-0.1,0c-6.1-0.3-12.8-6.2-12.8-13.5c0-7.3,6.8-13.1,12.8-13.5
				c0,0,0.1,0,0.1,0c0,0,127.8,0,128,0c7.6,0,13.7,6.1,13.7,13.5C466.2,323.2,460.1,329.2,452.6,329.2z M324.6,324.2
				c3.6,0,127.8,0,128,0c4.8,0,8.6-3.8,8.6-8.5c0-4.6-4-8.5-8.7-8.5c-0.2,0-124.3,0-127.9,0c-3.3,0.2-8.1,3.9-8.1,8.5
				C316.5,320.3,321.3,324,324.6,324.2z"/>
		</g>
	</g>
	<g>
		<g>
			<path class="st0" d="M295.6,309.6l0.1-0.1c0,0-21.5-17.8-37.3-31.6c0-1.8-1.9-3-1.9-4.6c0-42.5,0-83,0-121.3
				c0-5.7-4.8-10.3-10.5-10.3c-5.7,0-10.5,4.6-10.5,10.3c0,0,0,0,0,0c0,26.9,0,53.4,0,80c-32-10-63,4.2-73.3,26.6
				c-6.1,13.4-3.7,32.1,1.1,43.9c9.1,22.5,43.5,36.1,69.8,21c9.4-5.4,16.7-13.7,21.2-24.4c12.7,11,29,25.2,29,25.2l0.2-0.2
				c1.9,1.4,4.4,2,6.9,1.7c5.2-0.7,8.8-5.5,8-10.7C298.2,312.9,297.1,311,295.6,309.6z M225.1,305.6c-4.9,3-12.8,5-21,3.7
				c-19.2-2.9-31.7-29.3-18.6-47c8.9-12.1,35.1-17.8,54.4-9.9C241.5,277.7,238.7,297.2,225.1,305.6z"/>
		</g>
		<g>
			<path class="st1" d="M209,332.4c-20.9,0-41-12.2-47.8-28.9c-5-12.2-7.4-31.8-0.9-45.9c8.6-18.7,30.6-31.3,54.7-31.3
				c6.2,0,12.5,0.8,18.6,2.4V152c0-7.1,5.8-12.8,13-12.8c7.2,0,13,5.7,13,12.8v121.3c0,0.1,0.3,0.6,0.4,0.9c0.3,0.6,0.8,1.4,1,2.4
				c15.5,13.5,36.1,30.8,36.3,30.9c0.3,0.3,0.5,0.6,0.7,0.9c1.6,1.8,2.6,3.9,2.9,6.3c0.9,6.5-3.6,12.6-10.2,13.5
				c-0.6,0.1-1.1,0.1-1.7,0.1c0,0,0,0,0,0c-2.1,0-4.2-0.6-6.1-1.7c-0.5-0.1-0.9-0.3-1.3-0.6c-0.2-0.1-14.3-12.6-26.4-23
				c-4.7,9.8-11.7,17.3-20.8,22.5C226.9,330.1,218.1,332.4,209,332.4z M215,231.2c-22.2,0-42.4,11.4-50.2,28.4
				c-5.8,12.7-3.6,30.6,1,41.9c6.1,15,24.2,25.8,43.1,25.8c8.3,0,16.1-2,23.1-6c9-5.2,15.8-13,20.1-23.2c0.3-0.7,1-1.3,1.7-1.5
				c0.8-0.2,1.6,0,2.2,0.5c11,9.5,24.8,21.6,28.2,24.6c0.3,0.1,0.5,0.2,0.8,0.4c1.2,0.8,2.6,1.3,4.1,1.3h0c0.3,0,0.7,0,1-0.1
				c3.8-0.5,6.5-4.1,5.9-7.9c-0.2-1.6-1-3-2.1-4.1c-0.2-0.2-0.4-0.4-0.5-0.6c-3.8-3.2-22.4-18.8-36.4-31c-0.5-0.5-0.9-1.2-0.9-1.9
				c0-0.3-0.3-0.8-0.5-1.2c-0.5-0.9-1.1-1.9-1.1-3.3V152c0-4.2-3.7-7.8-8-7.8c-4.3,0-8,3.6-8,7.8v80c0,0.8-0.4,1.5-1,2
				c-0.6,0.5-1.5,0.6-2.2,0.4C228.7,232.3,221.9,231.2,215,231.2z M209.2,312.2c-1.8,0-3.7-0.1-5.5-0.4
				c-10.1-1.5-19.1-9.1-23.5-19.7c-4.5-10.8-3.2-22.5,3.3-31.2c6.4-8.7,21.2-14.6,36.8-14.6c7.4,0,14.5,1.3,20.6,3.9
				c0.9,0.4,1.5,1.2,1.5,2.2c1.2,20.4,0.5,45.2-16,55.4C221.8,310.6,215.6,312.2,209.2,312.2z M220.3,251.3c-14,0-27.2,5-32.7,12.5
				c-5.4,7.3-6.4,17.2-2.7,26.3c3.7,9,11.2,15.4,19.6,16.7c1.6,0.2,3.2,0.4,4.8,0.4c5.4,0,10.8-1.4,14.6-3.7
				c10.9-6.8,15.2-22,13.8-49.3C232.4,252.3,226.4,251.3,220.3,251.3z"/>
		</g>
	</g>
</g>
<g>
	<g>
		<path class="st1" d="M37.3,154.3c17.6,11.5,20.5,26.3,8.7,44.5c-1.9,2.9-4.8,6.5-8.7,10.8L4.9,179.1c-1.5-1.4-2.6-2.5-3.4-3.3
			c3.4-6.3,6-10.7,7.8-13.4c1.7-2.7,3.7-5,5.9-7.1c2.2-2.1,4.4-3.5,6.8-4.3C26.5,149.5,31.6,150.6,37.3,154.3z M27.1,165
			c-6.2-4-10.6-3.9-13.4,0.3l-0.4,0.6c-0.1,0.2-0.2,0.4-0.3,0.6l29.4,27.8c0.2-0.1,0.3-0.2,0.4-0.4l0.3-0.5c0.9-1.5,1.4-3.3,1.5-5.4
			c0-2.1-0.5-4.4-1.7-6.9C40.2,175.5,34.9,170.1,27.1,165z"/>
	</g>
	<g>
		<path class="st1" d="M78.1,155.6c-6.8,7.8-14,8.4-21.7,1.7c-5.5-4.8-8.8-10.1-9.8-16c-1.1-6.3,0.6-12.1,5.2-17.4
			c3.3-3.8,6.8-5.9,10.3-6.3c3.6-0.3,7.3,1.2,11.2,4.6c6,5.2,9.4,10.8,10.2,16.8C84.3,144.9,82.5,150.5,78.1,155.6z M54.9,133.1
			c0.6,1.3,1.6,2.8,2.8,4.4c1.2,1.6,2.8,3.7,4.9,6.2c2,2.5,4.5,5,7.5,7.6c1,0.8,1.9,1.4,2.8,1.6c0.9,0.2,1.7,0,2.4-0.9
			c0.7-0.8,1.1-1.7,1.1-2.5c0-0.9-0.3-1.9-0.9-3.2c-1.1-2.2-3-5-5.7-8.3c-2.7-3.3-4.7-5.6-6.1-6.9c-1.3-1.2-2.5-2.3-3.5-3.2
			c-1-0.9-2-1.5-2.9-1.8c-0.9-0.3-1.7,0-2.4,0.8c-0.7,0.8-1,1.7-0.9,2.7C53.9,130.7,54.2,131.8,54.9,133.1z"/>
	</g>
	<g>
		<path class="st1" d="M104.4,96.8C95.1,87,87.7,82.4,82.2,83.1c0-1.6,0.4-3.2,1.2-4.7c0.8-1.5,2-2.9,3.5-4.1
			c1.5-1.2,3.1-1.9,4.7-2.2c1.6-0.3,3.2-0.2,4.9,0.5c3.2,1.2,6.9,4.6,11.2,10.1l3.3,4.2c-3.1-8.6-4.7-15.3-4.7-20
			c-0.1-4.8,1.3-8.3,4.1-10.5c1.1-0.9,2.3-1.3,3.5-1.2c1.2,0,2.4,0.4,3.4,1c-1.8,3.5-2.7,8.3-2.4,14.2c0.2,6,1.5,12.3,3.8,19
			l8.3,17.5l-12.4,9.6L104.4,96.8z"/>
	</g>
	<g>
		<path class="st1" d="M155.8,89.4c-9,5.1-16,3.1-21-5.8c-3.6-6.3-4.8-12.5-3.8-18.4c1.1-6.3,4.7-11.2,10.8-14.6
			c4.4-2.5,8.4-3.3,11.8-2.4c3.5,0.9,6.5,3.6,9,8.1c3.9,6.9,5.2,13.3,3.9,19.3C165.2,81.5,161.7,86.1,155.8,89.4z M141.6,60.4
			c0.2,1.4,0.5,3.1,1.1,5.1c0.6,2,1.4,4.5,2.5,7.5c1.1,3,2.5,6.3,4.5,9.7c0.6,1.1,1.3,1.9,2.1,2.5c0.8,0.5,1.6,0.5,2.6,0
			c0.9-0.5,1.6-1.2,1.9-2c0.3-0.8,0.4-1.9,0.2-3.3c-0.3-2.4-1.2-5.7-2.6-9.7c-1.4-4.1-2.5-6.9-3.4-8.5c-0.8-1.6-1.6-3-2.3-4.2
			c-0.7-1.2-1.4-2.1-2.1-2.7c-0.8-0.6-1.6-0.6-2.5-0.1c-0.9,0.5-1.5,1.3-1.8,2.2C141.5,57.7,141.4,58.9,141.6,60.4z"/>
	</g>
	<g>
		<path class="st1" d="M200.3,63.7c-1.1,3.7-4.2,6.4-9.5,8.3c-2.7,1-5.4,1-8,0c-2.6-1-4.4-2.8-5.3-5.3c-0.5-1.4-0.8-2.5-0.9-3.2
			L171.9,37l12.9-6.3l4.9,28.7c0.2,1.1,0.4,1.9,0.6,2.5c1,2.7,2.2,3.8,3.8,3.2c1.7-0.6,2.8-2.4,3.1-5.3c0.1-0.9,0.1-1.9-0.1-3
			l-4.6-27.3l12.5-6.1l5,29c0.1,0.7,0.3,1.5,0.6,2.2c0.3,0.7,0.8,1.5,1.4,2.1c0.7,0.7,1.7,0.9,3.1,0.6c0.1,1.2-0.1,2.4-0.8,3.4
			c-1.4,2.3-3.1,3.8-5.2,4.6c-2.1,0.8-3.9,1-5.4,0.6C202.3,65.6,201.1,64.8,200.3,63.7z"/>
	</g>
	<g>
		<path class="st1" d="M273,52.2c-6,0.8-9.8-3.3-11.5-12.1l-12,1.6c-0.6,2.4-1.2,4.6-1.6,6.6l-1.1,5.8l-9.8,1.3L252.7,4l15-2
			l7.6,35.3c1.1,5.1,2.7,8.3,4.8,9.5C279.1,49.9,276.7,51.7,273,52.2z M250.9,36l9.6-1.3L257.2,16l-0.3-2l-3.5,12.2L250.9,36z"/>
	</g>
	<g>
		<path class="st1" d="M339.4,11.3c-3.8-0.2-7-1-9.7-2.5l-2.9,11.9l13.6,0.7c-0.1,2.6-0.9,4.7-2.2,6.3c-1.3,1.6-3.1,2.3-5.4,2.2
			c-2.4-0.1-4.8-0.7-7-1.8c-0.5-0.2-0.7-0.4-0.8-0.4l-5.2,21.9l-15.3-0.8l11.5-48.4l31.4,1.7c-0.2,3-1,5.3-2.4,7
			C343.6,10.7,341.7,11.5,339.4,11.3z"/>
	</g>
	<g>
		<path class="st1" d="M363.2,50.4c-2,3.4-5.4,4.8-9.9,4c-2.3-0.4-4.1-1.5-5.3-3.5c-1-1.6-1.3-3.2-1.1-4.8c0.6-3.7,2.4-9.4,5.3-17.1
			l9.7-27.3l14.4,0.9l-12.8,35.9c-1.4,3.5-2.2,5.9-2.4,7.1C360.6,48.4,361.3,50,363.2,50.4z"/>
	</g>
	<g>
		<path class="st1" d="M374.8,54.2c-0.7-1.5-1-3.4-0.9-5.4c0.1-2.1,0.6-4.7,1.6-7.9c0.9-3.2,2.4-6,4.3-8.6c1.9-2.6,4.1-4.6,6.6-6.1
			c5.2-3.2,11-3.8,17.3-1.9c2.3,0.7,4.2,1.7,5.6,3l11.9,2.2l-13.3,26.2c-0.3,0.5-0.6,1.3-0.9,2.4c-0.3,1-0.3,2,0.1,2.8
			c0.4,0.8,1,1.4,1.9,1.8c-0.9,1.5-2.4,2.4-4.3,2.9c-1.9,0.5-3.8,0.4-5.7-0.1c-1.8-0.6-3.3-1.4-4.3-2.5c-1-1.1-1.5-2.3-1.5-3.7
			c-1.1,1-2.5,1.6-4.2,1.9c-1.8,0.3-3.7,0.1-5.7-0.5c-2-0.6-3.8-1.5-5.3-2.5C376.5,57.1,375.4,55.8,374.8,54.2z M397.6,29.6
			c-0.8,0.7-1.6,1.7-2.5,3c-0.9,1.3-2.3,3.8-4.2,7.4c-1.9,3.6-3.3,6.8-4.1,9.6c-0.8,2.7-1.1,4.6-1,5.5c0.2,0.9,0.6,1.5,1.3,1.7
			c1.4,0.4,2.9,0.1,4.4-1c1.5-1.1,2.8-2.9,4-5.3l9.8-19.7c-0.7-1.1-1.6-1.9-2.7-2.2c-1.1-0.3-2-0.4-2.8-0.2
			C399.2,28.5,398.4,28.9,397.6,29.6z"/>
	</g>
	<g>
		<path class="st1" d="M454.5,47.6c2.2-1,4.5-0.9,6.9,0.3c1.5,0.7,2.6,1.8,3.3,3.2c0.7,1.4,0.7,2.9,0,4.5c-0.8,1.6-1.8,3.1-3.1,4.6
			c-1.3,1.5-2.7,2.9-4.3,4.3c-3.1,2.7-6.3,4.9-9.6,6.8c-4.8,2.7-9,4.5-12.7,5.3c-3.7,0.8-7,0.5-10-0.9c-2.4-1.1-4.1-2.4-5.3-3.6
			c4.3-9.5,7.1-15.9,8.3-19.4c1.3-3.5,2.3-6.2,2.9-8.2c1.3-3.8,1.5-6.4,0.7-7.8c1.4-0.4,2.7-0.6,3.8-0.5c1.1,0.1,2.7,0.6,4.7,1.6
			c2,1,3.3,2.6,3.9,4.9c0.6,2.3,0.4,4.9-0.8,8c-1.1,3-2.5,6.2-4.2,9.7c-1.7,3.5-3.7,7.2-5.9,11.3c1.8-0.3,4.1-1.7,6.9-4
			c3.9-3.2,7.4-7.2,10.5-11.8c0.9-1.4,1.8-2.9,2.6-4.5C453.9,49.5,454.4,48.3,454.5,47.6z"/>
	</g>
	<g>
		<path class="st1" d="M465.5,98.1c-8.5-5.9-9.9-13-4.1-21.4c4.1-6,9.1-9.8,14.9-11.6c6.2-1.8,12.1-0.8,17.9,3.2
			c4.2,2.9,6.6,6.1,7.4,9.6c0.7,3.5-0.4,7.4-3.3,11.7c-4.5,6.5-9.7,10.5-15.6,12C476.8,103,471.1,101.9,465.5,98.1z M485.3,72.5
			c-1.2,0.8-2.6,1.9-4.1,3.3c-1.5,1.4-3.4,3.2-5.6,5.5c-2.3,2.3-4.5,5-6.7,8.3c-0.7,1.1-1.2,2-1.3,3c-0.1,0.9,0.2,1.7,1.1,2.3
			c0.9,0.6,1.8,0.9,2.6,0.8c0.9-0.1,1.9-0.5,3-1.2c2.1-1.3,4.6-3.5,7.6-6.6c3-3.1,5.1-5.3,6.2-6.8c1.1-1.5,2-2.8,2.8-3.9
			c0.8-1.1,1.3-2.2,1.4-3.1c0.2-0.9-0.1-1.7-1-2.3c-0.9-0.6-1.8-0.8-2.8-0.6C487.6,71.3,486.5,71.7,485.3,72.5z"/>
	</g>
	<g>
		<path class="st1" d="M520.2,113c3.4-1.2,6.1-3,8.3-5.4c1.4-1.6,1.6-2.9,0.5-3.8c-0.8-0.8-2.4-0.8-4.6-0.1
			c-2.3,0.7-4.4,1.9-6.5,3.5l-18.6,15l-11.8-8.7l31.7-24.3l9.6,6.7l-6,4.7c5.1-2.1,9.5-1.5,13.3,2c2,1.8,3.1,3.8,3.2,5.9
			c0.1,2.1-0.9,4.3-2.9,6.5c-2,2.3-4.4,3.5-7.1,3.6c-2.7,0.1-5.3-0.9-7.7-3C520.7,114.7,520.2,113.9,520.2,113z"/>
	</g>
	<g>
		<path class="st1" d="M533.1,149.9c1.4-1.2,3-1.6,4.7-1.2c1.7,0.4,3.2,1.4,4.4,2.9c1.3,1.5,1.9,3.1,1.8,4.7c0,1.6-0.8,3-2.2,4.2
			c-1.4,1.2-3,1.6-4.6,1.2c-1.6-0.4-3.1-1.3-4.3-2.8c-1.3-1.5-1.9-3.1-1.9-4.7C530.9,152.5,531.6,151.1,533.1,149.9z"/>
	</g>
	<g>
		<path class="st1" d="M551.5,167.4c1.1-0.8,3.2-1.9,6.3-3.3l18.4-8.8l-2.4-3.4l2-1.1c4.8,3.5,10.5,6.2,17.2,8l2,2.7l-7.5,3.4
			l3.2,4.4l-3.1,1.5l-3.2-4.4l-18.3,8.9c-2.8,1.3-4.7,2.3-5.5,2.9c-1.9,1.4-2.5,3-1.7,4.9c-1.6,0.6-3.4,0.5-5.1-0.3
			c-1.8-0.8-3.4-2.1-4.8-4.1c-1.4-1.9-1.9-3.9-1.4-6C547.9,170.9,549.2,169.1,551.5,167.4z"/>
	</g>
	<g>
		<path class="st1" d="M585.4,230.1c-3.5-1.4-6.1-3.5-7.6-6.1c-1.5-2.7-2.3-4.6-2.3-5.9l14.2-8.1c-7.9,1.4-14.2,0.7-19.1-2
			c-1.8-1-3.1-2.2-3.9-3.6c-1.6-2.7-2.4-4.9-2.5-6.4c9.7-5.9,15.8-9.8,18.4-11.6c2.6-1.8,4.7-3.3,6.2-4.4c3.1-2.3,5-4.6,5.5-6.7
			c2.4,1,4.3,2.7,5.7,5.1c2.7,4.7,1.2,9.2-4.7,13.4c-1.4,1-2.8,1.9-4.4,2.8c-2.3,1.3-7.6,4-16,8.2c1,0.7,2.7,1.1,5,1.2
			c2.3,0.1,4.8-0.1,7.6-0.6c6.5-1.1,12-3,16.6-5.7c0.7-0.4,1.4-0.9,2.1-1.6c0.7-0.6,1-1.1,1.1-1.4c1.7,0.9,3.2,2.5,4.4,4.6
			c1.2,2.2,1.4,4.2,0.4,6.2c-1,1.9-2.8,3.9-5.5,5.8c-3.5,2.4-6.3,4.2-8.5,5.5c-3,1.7-6.9,3.8-11.6,6c2.7,1.2,7.1,1.1,13.1-0.1
			c6-1.2,10.8-2.9,14.4-4.9c1.6-0.9,2.8-1.8,3.6-2.5c2.4,0.4,4.2,1.8,5.5,4.1c0.8,1.4,1.1,2.9,0.9,4.4c-0.2,1.5-1.1,2.7-2.6,3.6
			c-1.5,0.9-3.2,1.6-5.1,2.1c-1.9,0.5-3.8,0.9-5.9,1.2c-4.1,0.6-8,0.7-11.7,0.3C593.4,232.5,589,231.5,585.4,230.1z"/>
	</g>
</g>
<g>
	<g>
		<g>
			<g>
				<g>
					<g>
						<g>
							<path class="st1" d="M61.9,628.3c0,0.5-0.2,0.9-0.5,1.2c-0.3,0.3-0.8,0.5-1.3,0.5h-13c0,0-0.1,0-0.1,0c0,0,0,0,0.1,0.1
								c4.2,2.4,8.9,4.3,14.2,5.6c0.4,0.1,0.6,0.3,0.7,0.7c0.1,0.2,0.1,0.3,0.1,0.4c0,0.2-0.1,0.5-0.3,0.6c-0.5,0.7-1.1,1.3-1.6,2
								c-0.3,0.4-0.7,0.8-1.2,1c-0.5,0.1-1,0.2-1.4,0c-5.7-1.8-10.8-4.3-15.5-7.7c-0.1-0.1-0.2-0.1-0.2,0v6.9c0,0.5-0.2,0.9-0.5,1.2
								c-0.3,0.3-0.7,0.5-1.2,0.5h-2.4c-0.5,0-0.9-0.1-1.2-0.5c-0.3-0.3-0.4-0.7-0.4-1.2V633c0-0.1-0.1-0.1-0.2,0
								c-4.7,3.3-9.8,5.9-15.6,7.7c-0.5,0.2-1,0.2-1.4-0.1c-0.5-0.2-0.9-0.5-1.3-0.9c-0.5-0.8-1.1-1.5-1.7-2.2
								c-0.2-0.2-0.3-0.5-0.3-0.7c0-0.2,0.1-0.4,0.2-0.6c0.2-0.2,0.4-0.3,0.6-0.4c5.5-1.3,10.4-3.2,14.8-5.7c0,0,0,0,0-0.1
								c0,0,0,0,0,0H18.3c-0.5,0-0.9-0.2-1.3-0.5c-0.4-0.4-0.5-0.8-0.5-1.2V627c0-0.5,0.1-0.9,0.5-1.3c0.4-0.4,0.8-0.5,1.3-0.5h17.6
								c0.2,0,0.3-0.1,0.3-0.2v-1.5c0-0.2-0.1-0.2-0.3-0.2H24c-0.4,0-0.9-0.2-1.2-0.5c-0.4-0.4-0.5-0.7-0.5-1.3v-11.7c0,0,0,0-0.1,0
								c0,0-0.1,0-0.1,0c-0.4,0.4-0.9,0.8-1.4,1.2c-0.4,0.3-0.8,0.4-1.3,0.3c-0.5,0-0.9-0.2-1.2-0.6c-0.5-0.5-1.1-1.1-1.7-1.7
								c-0.3-0.3-0.5-0.6-0.5-1c0-0.5,0.2-0.8,0.5-1.1c4-3.1,7.2-6.8,9.7-11.1c0.3-0.5,0.7-0.8,1.1-1c0.4-0.3,0.9-0.3,1.4-0.2
								l2.8,0.5c0.4,0.1,0.7,0.3,0.9,0.7c0.2,0.4,0.1,0.8-0.1,1.1c-0.5,0.8-1.1,1.7-1.7,2.7c-0.1,0.1,0,0.2,0.1,0.2h6.7
								c0.1,0,0.2-0.1,0.3-0.2c0.6-1.1,1.1-2.4,1.5-3.6c0.2-0.5,0.5-0.8,0.9-1.2c0.4-0.2,0.7-0.3,1.1-0.3c0.1,0,0.2,0,0.2,0L45,595
								c0.4,0,0.8,0.2,1,0.6c0.2,0.4,0.2,0.8-0.1,1.1c-0.5,1-1.1,2-1.7,2.9c-0.1,0.1-0.1,0.2,0.1,0.2h13.1c0.5,0,0.9,0.2,1.3,0.5
								c0.3,0.4,0.5,0.8,0.5,1.2v1.2c0,0.5-0.1,0.9-0.5,1.2c-0.3,0.3-0.8,0.5-1.3,0.5H43.5c-0.1,0-0.2,0.1-0.2,0.3v1.6
								c0,0.1,0.1,0.2,0.2,0.2h11.4c0.5,0,0.9,0.2,1.2,0.5c0.3,0.4,0.5,0.8,0.5,1.3v0.5c0,0.4-0.2,0.9-0.5,1.2
								c-0.3,0.3-0.8,0.5-1.2,0.5H43.5c-0.1,0-0.2,0-0.2,0.2v1.7c0,0.2,0.1,0.2,0.2,0.2H55c0.5,0,0.9,0.2,1.2,0.5
								c0.3,0.3,0.5,0.8,0.5,1.2v0.5c0,0.5-0.2,0.9-0.5,1.2c-0.3,0.3-0.7,0.5-1.2,0.5H43.5c-0.1,0-0.2,0.1-0.2,0.2v1.8
								c0,0.1,0.1,0.1,0.2,0.1h15.4c0.5,0,0.9,0.2,1.2,0.5c0.4,0.4,0.5,0.8,0.5,1.3v1c0,0.5-0.2,0.9-0.5,1.3
								c-0.3,0.3-0.7,0.5-1.2,0.5H42.3c-0.2,0-0.3,0.1-0.3,0.2v1.5c0,0.1,0.1,0.2,0.3,0.2h17.9c0.5,0,0.9,0.1,1.3,0.5
								c0.3,0.3,0.5,0.8,0.5,1.3V628.3z M37.3,606.5c0.1,0,0.2-0.1,0.2-0.2v-1.6c0-0.2-0.1-0.3-0.2-0.3h-9.1c-0.1,0-0.2,0.1-0.2,0.3
								v1.6c0,0.1,0.1,0.2,0.2,0.2H37.3z M37.3,612.6c0.1,0,0.2-0.1,0.2-0.2v-1.7c0-0.2-0.1-0.2-0.2-0.2h-9.1c-0.1,0-0.2,0-0.2,0.2
								v1.7c0,0.2,0.1,0.2,0.2,0.2H37.3z M28.2,616.5c-0.1,0-0.2,0.1-0.2,0.2v1.8c0,0.1,0.1,0.1,0.2,0.1h9.1c0.1,0,0.2,0,0.2-0.1
								v-1.8c0-0.1-0.1-0.2-0.2-0.2H28.2z"/>
						</g>
					</g>
				</g>
			</g>
			<g>
				<g>
					<g>
						<g>
							<path class="st1" d="M108.4,603.5c0,0.2,0.1,0.2,0.2,0.2h18.6c0.4,0,0.8,0.2,1.2,0.5c0.3,0.3,0.4,0.8,0.4,1.2
								c0,0.3,0,0.7-0.1,1.2c-0.5,10.1-1,17.4-1.6,21.8c-0.6,4.4-1.5,7.3-2.6,8.6c-1.2,1.6-3,2.5-5.2,2.8c-1.1,0.1-2.4,0.2-4.1,0.2
								c-0.7,0-1.4,0-2.2-0.1c-0.5,0-0.9-0.1-1.3-0.5c-0.4-0.3-0.6-0.8-0.7-1.2c-0.2-1.1-0.5-2.1-1-3c-0.2-0.3-0.2-0.6,0-0.9
								c0.2-0.3,0.5-0.4,0.8-0.4c1.7,0.1,3.6,0.1,5.7,0.1c1.1,0,1.8-0.3,2.4-0.8c1.5-1.5,2.6-9.2,3.4-23c0-0.1-0.1-0.2-0.2-0.2
								h-13.7c-0.1,0-0.2,0.1-0.2,0.2c-0.1,2.2-0.4,4.3-0.8,6.3c-0.4,2-1,4.2-1.9,6.5c-0.9,2.4-2,4.5-3.3,6.5c-1.3,2-3,4-5.2,6
								c-1.8,1.6-3.7,3.1-5.8,4.4c-0.3,0.2-0.6,0.3-0.9,0.3c-0.1,0-0.3,0-0.4-0.1c-0.5-0.1-0.9-0.4-1.2-0.8
								c-0.6-0.8-1.4-1.6-2.3-2.4c-0.3-0.2-0.4-0.5-0.4-0.9c0-0.4,0.2-0.8,0.6-1.1c9.1-5.4,14.1-13.7,15.2-24.8
								c0-0.2-0.1-0.2-0.2-0.2H88.3c-0.5,0-0.8-0.2-1.2-0.5c-0.4-0.3-0.5-0.8-0.5-1.3v-2.6c0-0.4,0.2-0.9,0.5-1.2
								c0.4-0.4,0.7-0.5,1.2-0.5h13.5c0.1,0,0.2-0.1,0.2-0.2v-8.4c0-0.5,0.2-0.9,0.5-1.3c0.3-0.3,0.8-0.5,1.2-0.5h2.9
								c0.5,0,0.9,0.2,1.3,0.5c0.3,0.4,0.5,0.8,0.5,1.3V603.5z"/>
						</g>
					</g>
				</g>
			</g>
			<g>
				<g>
					<g>
						<g>
							<path class="st1" d="M198.8,621.3c0,0.5-0.2,0.9-0.5,1.2c-0.3,0.3-0.8,0.5-1.3,0.5h-10.3c-0.1,0-0.2,0.1-0.3,0.2
								c-0.4,3.1-1.3,5.9-2.6,8.4c-0.1,0.1-0.1,0.2,0.1,0.3c4.2,2,9.3,3.3,15.3,4c0.4,0,0.6,0.2,0.8,0.5c0.1,0.4,0.1,0.7-0.1,1
								c-0.6,0.8-1.1,1.5-1.6,2.4c-0.3,0.5-0.6,0.8-1.1,1.1c-0.5,0.3-0.9,0.3-1.4,0.2c-6-0.9-11.1-2.6-15.3-4.9
								c-0.2-0.1-0.3-0.1-0.4,0c-2.2,2-5,3.5-8.5,4.7c-0.5,0.2-1,0.1-1.4,0c-0.5-0.2-0.9-0.5-1.2-0.9c-0.5-0.8-1.1-1.5-1.7-2.2
								c-0.2-0.3-0.3-0.7-0.1-1.1c0.1-0.4,0.3-0.6,0.7-0.8c3-0.8,5.4-1.9,7.3-3.3c0.1-0.1,0.1-0.1,0-0.3c-1.9-1.6-3.6-3.6-5.1-5.9
								c-0.2-0.4-0.3-0.7-0.2-1.2c0.2-0.4,0.4-0.7,0.9-0.8l1.5-0.5c0.5-0.2,1-0.1,1.5,0c0.4,0.2,0.9,0.5,1.2,0.9
								c0.9,1.2,2.1,2.5,3.5,3.6c0.1,0.1,0.2,0,0.3-0.1c0.9-1.6,1.4-3.3,1.7-5.3c0-0.2,0-0.2-0.2-0.2h-9.3c-0.5,0-0.9-0.2-1.2-0.5
								c-0.3-0.3-0.5-0.8-0.5-1.2v-11.2c0-0.5,0.2-1,0.5-1.3c0.3-0.3,0.8-0.5,1.2-0.5h9.7c0.1,0,0.2-0.1,0.2-0.2V605
								c0-0.1,0-0.2-0.2-0.2h-10.8c-0.5,0-0.9-0.2-1.2-0.5c-0.3-0.4-0.5-0.8-0.5-1.3v-2.7c0,0,0,0,0,0c-0.1,0-0.1,0-0.1,0
								c-0.9,1.9-1.8,3.7-2.8,5.4c-0.1,0.1-0.1,0.2-0.1,0.4v33.7c0,0.5-0.2,0.9-0.5,1.2c-0.3,0.3-0.8,0.5-1.3,0.5h-2.2
								c-0.4,0-0.9-0.2-1.2-0.5c-0.3-0.3-0.5-0.7-0.5-1.2v-25.1c0,0,0-0.1,0-0.1c-0.1,0-0.1,0-0.2,0.1c-1,1.3-1.9,2.3-2.7,3.3
								c-0.3,0.3-0.7,0.4-1.1,0.3c-0.4,0-0.7-0.2-0.9-0.7c-0.5-1.1-1-2.1-1.6-3.1c-0.2-0.4-0.3-0.7-0.3-1.1c0-0.1,0-0.2,0-0.3
								c0.1-0.5,0.3-0.9,0.6-1.2c2-2.1,3.9-4.6,5.7-7.4c1.8-2.8,3.3-5.7,4.6-8.7c0.2-0.4,0.5-0.8,0.9-1c0.3-0.1,0.5-0.2,0.8-0.2
								c0.2,0,0.4,0,0.6,0.1l2.2,0.7c0.5,0.1,0.8,0.5,1,0.8c0.2,0.4,0.2,0.9,0,1.3c-0.2,0.5-0.4,1-0.6,1.4c-0.1,0.2,0,0.2,0.1,0.2
								h11.9c0.1,0,0.2,0,0.2-0.2v-2.6c0-0.5,0.2-0.9,0.6-1.2c0.3-0.3,0.7-0.5,1.3-0.5h2.4c0.5,0,0.9,0.2,1.3,0.5
								c0.3,0.3,0.5,0.8,0.5,1.2v2.6c0,0.2,0.1,0.2,0.2,0.2h11.4c0.5,0,0.9,0.2,1.2,0.5c0.3,0.4,0.5,0.8,0.5,1.3v1.9
								c0,0.5-0.2,0.9-0.5,1.3c-0.4,0.3-0.7,0.5-1.2,0.5h-11.4c-0.1,0-0.2,0.1-0.2,0.2v3.1c0,0.1,0.1,0.2,0.2,0.2H197
								c0.5,0,0.9,0.2,1.3,0.5c0.4,0.3,0.5,0.8,0.5,1.3V621.3z M174.5,618c0,0.1,0.1,0.2,0.2,0.2h5.8c0.1,0,0.2,0,0.2-0.2v-0.4v-4.2
								c0-0.1,0-0.2-0.2-0.2h-5.8c-0.1,0-0.2,0.1-0.2,0.2V618z M193,613.4c0-0.1-0.1-0.2-0.3-0.2h-5.8c-0.1,0-0.2,0.1-0.2,0.2v4.2
								v0.4c0,0.1,0.1,0.2,0.2,0.2h5.8c0.2,0,0.3,0,0.3-0.2V613.4z"/>
						</g>
					</g>
				</g>
			</g>
			<g>
				<g>
					<g>
						<g>
							<path class="st1" d="M246.6,603.5c0,0.2,0.1,0.2,0.2,0.2h18.5c0.5,0,0.9,0.2,1.2,0.5c0.3,0.3,0.5,0.8,0.5,1.2
								c0,0.3-0.1,0.7-0.1,1.2c-0.5,10.1-1,17.4-1.6,21.8c-0.6,4.4-1.5,7.3-2.6,8.6c-1.2,1.6-3,2.5-5.2,2.8c-1,0.1-2.4,0.2-4.1,0.2
								c-0.7,0-1.4,0-2.2-0.1c-0.5,0-0.9-0.1-1.3-0.5c-0.4-0.3-0.6-0.8-0.7-1.2c-0.2-1.1-0.5-2.1-1-3c-0.2-0.3-0.1-0.6,0-0.9
								c0.2-0.3,0.5-0.4,0.9-0.4c1.7,0.1,3.6,0.1,5.7,0.1c1,0,1.8-0.3,2.4-0.8c1.5-1.5,2.6-9.2,3.3-23c0-0.1-0.1-0.2-0.2-0.2h-13.7
								c-0.1,0-0.2,0.1-0.2,0.2c-0.2,2.2-0.4,4.3-0.8,6.3c-0.4,2-1.1,4.2-2,6.5c-0.9,2.4-2,4.5-3.3,6.5c-1.3,2-3,4-5.1,6
								c-1.7,1.6-3.6,3.1-5.8,4.4c-0.3,0.2-0.6,0.3-0.9,0.3c-0.2,0-0.3,0-0.4-0.1c-0.5-0.1-0.9-0.4-1.2-0.8
								c-0.7-0.8-1.4-1.6-2.3-2.4c-0.2-0.2-0.4-0.5-0.4-0.9c0-0.4,0.2-0.8,0.6-1.1c9-5.4,14.1-13.7,15.2-24.8c0-0.2-0.1-0.2-0.2-0.2
								h-13.2c-0.5,0-0.8-0.2-1.2-0.5c-0.4-0.3-0.5-0.8-0.5-1.3v-2.6c0-0.4,0.1-0.9,0.5-1.2c0.4-0.4,0.7-0.5,1.2-0.5H240
								c0.1,0,0.2-0.1,0.2-0.2v-8.4c0-0.5,0.2-0.9,0.6-1.3c0.3-0.3,0.8-0.5,1.2-0.5h2.9c0.5,0,0.9,0.2,1.3,0.5
								c0.3,0.4,0.5,0.8,0.5,1.3V603.5z"/>
						</g>
					</g>
				</g>
			</g>
			<g>
				<g>
					<g>
						<g>
							<path class="st1" d="M359.6,640.2c-0.2,0.4-0.6,0.7-1.1,0.8c-0.5,0.1-1,0-1.4-0.2l-0.8-0.4c-0.4-0.2-0.6-0.6-0.7-0.9
								c0-0.2-0.1-0.3-0.1-0.4c0-0.3,0.1-0.6,0.3-0.9c0.9-1.6,1.6-3.5,2.1-5.7c0.1-0.5,0.4-0.8,0.7-1.1c0.4-0.3,0.8-0.3,1.2-0.2
								l0.7,0.2c0.5,0.1,0.9,0.5,1.2,0.9c0.2,0.4,0.3,0.8,0.2,1.3C361.3,636.4,360.5,638.6,359.6,640.2z M357.6,629.4
								c-0.4,0-0.9-0.2-1.2-0.6c-0.3-0.3-0.5-0.7-0.6-1.1l0-1.6c0-0.4,0.2-0.8,0.5-1.2c0.3-0.4,0.7-0.5,1.3-0.5c0.7,0,3-0.1,7-0.2
								c0.1,0,0.2-0.1,0.2-0.3v-2c0-0.2,0-0.2-0.2-0.2h-5.8c-0.5,0-0.9-0.1-1.2-0.5c-0.3-0.3-0.5-0.8-0.5-1.2v-1
								c0-0.5,0.1-0.9,0.5-1.2c0.3-0.3,0.8-0.5,1.2-0.5h5.8c0.1,0,0.2,0,0.2-0.2v-1.8c0-0.2,0-0.3-0.2-0.3h-5.9
								c-0.5,0-0.9-0.1-1.2-0.5c-0.4-0.3-0.5-0.8-0.5-1.3v-15.5c0-0.5,0.2-0.9,0.5-1.3c0.3-0.3,0.7-0.5,1.2-0.5h17.9
								c0.5,0,0.9,0.2,1.2,0.5c0.3,0.4,0.6,0.7,0.6,1.3v15.5c0,0.5-0.2,0.9-0.6,1.3c-0.3,0.3-0.8,0.5-1.2,0.5h-6.3
								c-0.1,0-0.2,0.1-0.2,0.3v1.8c0,0.2,0.1,0.2,0.2,0.2h6.1c0.5,0,0.9,0.2,1.3,0.5c0.3,0.3,0.5,0.8,0.5,1.2v1
								c0,0.5-0.2,0.9-0.5,1.2c-0.3,0.4-0.8,0.5-1.3,0.5h-6.1c-0.1,0-0.2,0-0.2,0.2v1.8c0,0.2,0.1,0.3,0.2,0.3
								c0.9-0.1,2.2-0.1,3.8-0.2c1.7-0.1,2.7-0.1,3.2-0.1c0.4,0,0.9,0.1,1.2,0.5c0.3,0.3,0.5,0.7,0.5,1.2v1.1c0,0.5-0.2,0.9-0.5,1.3
								c-0.3,0.3-0.8,0.5-1.3,0.5C370,628.7,363.5,629.1,357.6,629.4z M361.4,602.6C361.4,602.6,361.4,602.6,361.4,602.6
								C361.4,602.6,361.3,602.6,361.4,602.6l-0.1,8.1c0,0.1,0.1,0.2,0.2,0.2h3.8c0.2,0,0.2-0.1,0.2-0.2v-10.5
								c0-0.2-0.1-0.3-0.2-0.3h-3.8c-0.1,0-0.2,0.1-0.2,0.3v1.7c0,0.1,0.1,0.2,0.2,0.2l0.5-0.2c0.5-0.1,0.9-0.1,1.3,0.2
								c0.5,0.2,0.7,0.6,0.9,1c0.4,1.4,0.7,2.9,0.9,4.2c0.1,0.4,0,0.8-0.2,1c-0.2,0.4-0.6,0.6-0.9,0.8c-0.4,0-0.7,0-1-0.2
								c-0.3-0.2-0.5-0.5-0.5-0.8C362.3,606.2,362,604.4,361.4,602.6z M362.7,632.7c0-0.1,0-0.2,0-0.3c0-0.4,0.2-0.7,0.4-1
								c0.3-0.4,0.7-0.6,1.1-0.7l0.2-0.1c0.5,0,1,0.1,1.3,0.4c0.4,0.3,0.7,0.7,0.8,1.2c0.3,1.7,0.5,3.5,0.7,5.4
								c0,0.5-0.1,0.8-0.5,1.2c-0.3,0.4-0.8,0.6-1.2,0.7l-0.4,0.1c-0.5,0.1-0.9-0.1-1.2-0.4c-0.3-0.3-0.5-0.7-0.5-1.1
								C363.3,636.4,363.1,634.5,362.7,632.7z M368.1,632.4c-0.1-0.2-0.1-0.3-0.1-0.5c0-0.2,0.1-0.5,0.3-0.8c0.2-0.4,0.5-0.7,1-0.8
								h0.1c0.5-0.1,1,0,1.4,0.2c0.4,0.3,0.7,0.6,0.9,1.1c0.5,1.8,1,3.4,1.3,5c0.1,0.4,0,0.9-0.3,1.3c-0.2,0.4-0.6,0.7-1.1,0.8
								l-0.3,0c-0.5,0.2-0.9,0-1.3-0.2c-0.4-0.3-0.6-0.7-0.7-1.1C369,635.8,368.6,634.1,368.1,632.4z M373.4,602.1
								c0.1,0.1,0.2,0,0.2-0.1v-1.8c0-0.2-0.1-0.3-0.2-0.3h-3.9c-0.1,0-0.2,0.1-0.2,0.3v7.9c0.1,0,0.1,0,0.1,0
								c0.6-1.7,1.1-3.4,1.5-5.1c0.1-0.4,0.3-0.8,0.7-1c0.4-0.2,0.9-0.3,1.3-0.1L373.4,602.1z M369.3,610.7c0,0.1,0.1,0.2,0.2,0.2
								h3.9c0.1,0,0.2-0.1,0.2-0.2V604c0,0,0-0.1-0.1-0.1c-0.8,2-1.3,3.4-1.5,4c-0.1,0.4-0.5,0.8-1,1c-0.4,0.2-0.9,0.2-1.4,0.1
								l-0.2-0.1c-0.1,0-0.2,0-0.2,0.1V610.7z M373.3,631.8c-0.1-0.3-0.2-0.5-0.2-0.7c0-0.2,0-0.4,0.1-0.6c0.1-0.4,0.4-0.7,0.8-0.8
								l0.3-0.2c0.6-0.2,1-0.2,1.5,0c0.5,0.2,0.9,0.5,1.1,0.9c1,1.5,1.8,3.1,2.4,4.6c0.2,0.5,0.2,0.9,0,1.4c-0.2,0.5-0.5,0.8-1,1
								l-0.5,0.2c-0.4,0.2-0.9,0.1-1.3,0c-0.4-0.2-0.7-0.5-0.9-0.9C375,635,374.2,633.5,373.3,631.8z M402.2,608.6
								c0,0.4-0.2,0.9-0.5,1.2c-0.3,0.4-0.7,0.5-1.2,0.5h-7.8c-0.1,0-0.2,0.1-0.2,0.2v7.3c0,0.1,0.1,0.2,0.2,0.2h6.2
								c0.4,0,0.9,0.1,1.2,0.6c0.3,0.3,0.5,0.7,0.5,1.2v19.7c0,0.5-0.2,0.9-0.5,1.2c-0.3,0.3-0.8,0.5-1.2,0.5h-2.5
								c-0.4,0-0.8-0.2-1.1-0.4c-0.3-0.3-0.4-0.7-0.4-1.1c0-0.1-0.1-0.2-0.2-0.2h-8.9c-0.2,0-0.2,0.1-0.2,0.2c0,0.5-0.2,0.9-0.6,1.2
								c-0.3,0.3-0.7,0.5-1.2,0.5h-2c-0.5,0-0.9-0.1-1.3-0.5c-0.3-0.3-0.5-0.7-0.5-1.2v-19.9c0-0.5,0.2-0.9,0.5-1.2
								c0.4-0.4,0.8-0.6,1.3-0.6h4.7c0.1,0,0.2-0.1,0.2-0.2v-21.7c0-0.5,0.1-0.9,0.5-1.3c0.4-0.3,0.8-0.5,1.2-0.5h2.4
								c0.5,0,0.9,0.2,1.3,0.5c0.3,0.3,0.5,0.8,0.5,1.3v8.4c0,0.2,0.1,0.2,0.2,0.2h7.8c0.5,0,0.9,0.2,1.2,0.5
								c0.3,0.3,0.5,0.8,0.5,1.2V608.6z M394.6,634.2c0.1,0,0.3-0.1,0.3-0.3v-10.1c0-0.1-0.1-0.2-0.3-0.2h-8.9
								c-0.2,0-0.2,0.1-0.2,0.2v10.1c0,0.1,0,0.3,0.2,0.3H394.6z"/>
						</g>
					</g>
				</g>
			</g>
			<g>
				<g>
					<g>
						<g>
							<path class="st1" d="M437.2,625.8c0.1-0.5,0.3-0.9,0.6-1.3c0.4-0.3,0.8-0.5,1.3-0.5h2.7c0.5,0,0.9,0.1,1.2,0.5
								c0.3,0.4,0.4,0.8,0.4,1.2c-0.2,2.2-0.5,4.1-1,5.6c-0.5,1.5-1.3,2.9-2.3,4.3c-1.1,1.4-2.6,2.5-4.5,3.4
								c-1.9,0.9-4.2,1.6-7.1,2.3c-0.1,0.1-0.3,0.1-0.5,0.1c-0.3,0-0.7-0.1-1-0.2c-0.4-0.2-0.8-0.6-1-1.1c-0.4-0.8-0.8-1.5-1.3-2.2
								c-0.1-0.2-0.2-0.4-0.2-0.7c0-0.2,0.1-0.3,0.1-0.4c0.1-0.3,0.4-0.5,0.8-0.6c2.3-0.5,4.3-0.9,5.7-1.5c1.5-0.6,2.7-1.3,3.5-2.2
								c0.8-0.9,1.4-1.9,1.8-2.9C436.8,628.6,437,627.4,437.2,625.8z M468.1,598.2c0.5,0,0.9,0.1,1.3,0.5c0.3,0.3,0.5,0.8,0.5,1.3
								v1.4c0,0.5-0.1,0.9-0.5,1.3c-0.3,0.3-0.8,0.4-1.3,0.4h-41.4c-0.5,0-0.9-0.1-1.3-0.4c-0.3-0.4-0.5-0.8-0.5-1.3V600
								c0-0.5,0.2-0.9,0.5-1.3c0.3-0.4,0.8-0.5,1.3-0.5h17.1c0.1,0,0.2-0.1,0.2-0.2v-1.9c0-0.5,0.2-0.9,0.5-1.2
								c0.3-0.3,0.8-0.5,1.3-0.5h2.8c0.5,0,0.9,0.2,1.2,0.5c0.3,0.3,0.5,0.7,0.5,1.2v1.9c0,0.1,0.1,0.2,0.2,0.2H468.1z M469.6,626.8
								c0,0.5-0.2,0.9-0.5,1.3c-0.3,0.3-0.8,0.5-1.3,0.5h-2.1c-0.4,0-0.8-0.1-1.2-0.5c-0.3-0.3-0.5-0.8-0.5-1.3V623
								c0-0.2,0-0.2-0.2-0.2h-33.3c-0.2,0-0.2,0.1-0.2,0.2v3.8c0,0.5-0.2,0.9-0.5,1.3c-0.4,0.3-0.8,0.5-1.3,0.5h-1.8
								c-0.5,0-0.9-0.1-1.3-0.5c-0.3-0.3-0.5-0.8-0.5-1.3V620c0-0.5,0.2-0.9,0.5-1.3c0.3-0.3,0.8-0.5,1.3-0.5h41.1
								c0.5,0,0.9,0.2,1.3,0.5c0.3,0.4,0.5,0.8,0.5,1.3V626.8z M431.7,606.9c0-0.5,0.1-0.9,0.5-1.2c0.3-0.4,0.7-0.5,1.3-0.5h28
								c0.5,0,0.9,0.2,1.2,0.5c0.4,0.3,0.6,0.7,0.6,1.2v7.5c0,0.5-0.2,0.9-0.6,1.2c-0.3,0.3-0.8,0.5-1.2,0.5h-28
								c-0.5,0-0.9-0.2-1.3-0.5c-0.3-0.3-0.5-0.7-0.5-1.2V606.9z M456.5,612.1c0.1,0,0.2,0,0.2-0.2v-2.6c0-0.1-0.1-0.2-0.2-0.2
								h-18.6c-0.2,0-0.3,0.1-0.3,0.2v2.6c0,0.2,0.1,0.2,0.3,0.2H456.5z M458.2,636h4.6c0.7,0,1.1-0.2,1.4-0.7
								c0.2-0.4,0.4-1.3,0.5-2.8c0-0.3,0.2-0.7,0.6-0.8c0.3-0.2,0.7-0.2,1.1-0.1c0.7,0.3,1.5,0.7,2.4,1c0.5,0.1,0.9,0.4,1.1,0.9
								c0.3,0.3,0.4,0.7,0.4,1c0,0.1,0,0.2,0,0.3c-0.4,2.5-1,4.2-2,5.1c-1,0.9-2.6,1.4-4.7,1.4h-6.4c-3,0-5-0.5-6-1.5
								c-1-0.9-1.5-2.9-1.5-5.5V626c0-0.4,0.2-0.9,0.6-1.2c0.4-0.3,0.8-0.5,1.3-0.5h3c0.5,0,0.9,0.2,1.2,0.5
								c0.4,0.3,0.6,0.8,0.6,1.2v8.4c0,0.7,0.1,1.3,0.3,1.4C456.7,635.9,457.2,636,458.2,636z"/>
						</g>
					</g>
				</g>
			</g>
			<g>
				<g>
					<g>
						<g>
							<path class="st1" d="M500.9,606.6c0.2-0.4,0.6-0.8,1.1-1c0.2-0.1,0.5-0.1,0.7-0.1c0.2,0,0.4,0,0.6,0.1l2,0.7
								c0.5,0.2,0.8,0.4,1,0.9c0.2,0.4,0.2,0.8-0.1,1.3c-0.9,1.9-1.8,3.6-2.8,5.1c-0.1,0.1-0.1,0.3-0.1,0.4v25.8
								c0,0.5-0.2,0.9-0.5,1.2c-0.3,0.4-0.8,0.5-1.2,0.5h-2c-0.4,0-0.9-0.1-1.2-0.5c-0.4-0.3-0.5-0.7-0.5-1.2v-18.5c0,0,0,0,0,0
								c-0.1,0-0.1,0-0.2,0c-0.6,0.7-1.1,1.2-1.7,1.8c-0.2,0.3-0.6,0.4-1.1,0.3c-0.4-0.1-0.7-0.3-0.9-0.7c-0.5-0.9-1-1.7-1.5-2.5
								c-0.2-0.3-0.3-0.7-0.3-1.1c0,0,0-0.1,0-0.2c0.1-0.5,0.3-0.9,0.7-1.3C496,614.6,498.8,610.9,500.9,606.6z M499.6,595.9
								c0.3-0.4,0.6-0.7,1.1-0.9c0.3-0.1,0.5-0.1,0.8-0.1c0.2,0,0.4,0,0.7,0.1l2.1,0.8c0.4,0.2,0.7,0.4,0.9,0.9
								c0.2,0.4,0.1,0.8-0.2,1.2c-2.4,3.6-5.2,6.8-8.4,9.6c-0.4,0.3-0.8,0.4-1.2,0.3c-0.5,0-0.9-0.3-1.1-0.7
								c-0.4-0.6-0.8-1.1-1.2-1.6c-0.3-0.4-0.4-0.8-0.3-1.3c0-0.5,0.2-0.9,0.6-1.2C495.8,600.8,497.9,598.5,499.6,595.9z
								 M537.7,610.6c0.4,0,0.8,0.2,1.2,0.5c0.4,0.4,0.6,0.8,0.6,1.3v1.8c0,0.5-0.2,0.9-0.6,1.2c-0.3,0.4-0.7,0.6-1.2,0.6h-1.8
								c-0.2,0-0.2,0.1-0.2,0.2v18.7c0,1.5-0.2,2.8-0.5,3.6c-0.3,0.8-0.9,1.5-1.8,2c-1.2,0.6-3.2,1-6,1h-0.1c-0.4,0-0.9-0.1-1.3-0.4
								c-0.4-0.3-0.6-0.7-0.8-1.3c-0.2-1.2-0.6-2.3-1-3.5c-0.1-0.1-0.2-0.2-0.3-0.2c-4.6,0.6-10.1,1.2-16.8,2
								c-0.4,0-0.8-0.1-1.2-0.4c-0.4-0.3-0.6-0.7-0.7-1.2l-0.2-2c-0.1-0.4,0-0.9,0.4-1.2c0.3-0.4,0.7-0.6,1.2-0.7
								c0.4,0,2.3-0.2,5.7-0.4c0.1,0,0.2-0.1,0.2-0.2v-5.6c0-0.1-0.1-0.2-0.2-0.2h-4.3c-0.5,0-0.9-0.2-1.3-0.6
								c-0.3-0.4-0.5-0.8-0.5-1.2v-1.7c0-0.5,0.2-0.9,0.5-1.3c0.4-0.3,0.8-0.5,1.3-0.5h4.3c0.1,0,0.2,0,0.2-0.2v-3.1
								c0-0.4,0.2-0.9,0.5-1.2c0.3-0.4,0.7-0.5,1.2-0.5h2.2c0.4,0,0.9,0.1,1.2,0.5c0.4,0.3,0.5,0.7,0.5,1.2v3.1
								c0,0.1,0.1,0.2,0.2,0.2h4.3c0.4,0,0.9,0.2,1.2,0.5c0.3,0.3,0.5,0.8,0.5,1.3v1.7c0,0.4-0.2,0.9-0.5,1.2
								c-0.3,0.3-0.8,0.6-1.2,0.6h-4.3c-0.2,0-0.2,0-0.2,0.2v5.1c0,0.1,0.1,0.2,0.2,0.2c1.4-0.2,3.1-0.3,5.1-0.6
								c0.5-0.1,0.9,0.1,1.3,0.4c0.3,0.3,0.6,0.7,0.6,1.2l0,2.8c0.1,0.1,0.1,0.2,0.3,0.2c1,0,1.8,0,2.3,0c0.6,0,0.9,0,0.9,0
								c0.4,0,0.6-0.1,0.7-0.2c0.2-0.1,0.2-0.3,0.2-0.6v-18.6c0-0.2-0.1-0.2-0.2-0.2h-2.1c-0.5,0-0.9-0.2-1.2-0.6
								c-0.3-0.3-0.5-0.7-0.5-1.2v-1.8c0-0.5,0.2-0.9,0.5-1.3c0.3-0.3,0.8-0.5,1.2-0.5H537.7z M512.4,609.8c0.1,0,0.2,0,0.2-0.2
								v-4.5c0-0.1,0-0.2-0.2-0.2h-3.7c-0.5,0-0.9-0.1-1.2-0.4c-0.3-0.4-0.5-0.8-0.5-1.3v-1.4c0-0.5,0.2-0.9,0.5-1.3
								c0.3-0.3,0.7-0.5,1.2-0.5h3.7c0.1,0,0.2-0.1,0.2-0.2v-3.6c0-0.5,0.2-0.9,0.6-1.2c0.3-0.3,0.7-0.4,1.3-0.4h2.2
								c0.5,0,0.9,0.1,1.2,0.4c0.3,0.3,0.5,0.8,0.5,1.2v3.6c0,0.1,0.1,0.2,0.2,0.2h3.7c0.5,0,0.9,0.2,1.3,0.5
								c0.3,0.4,0.5,0.8,0.5,1.3v1.4c0,0.5-0.2,0.9-0.5,1.3c-0.4,0.3-0.8,0.4-1.3,0.4h-3.7c-0.1,0-0.2,0.1-0.2,0.2v4.5
								c0,0.2,0.1,0.2,0.2,0.2h4.5c0.5,0,0.9,0.1,1.2,0.6c0.3,0.3,0.5,0.8,0.5,1.2v1.7c0,0.5-0.2,0.9-0.5,1.2
								c-0.3,0.3-0.7,0.5-1.2,0.5h-15.4c-0.5,0-0.9-0.1-1.2-0.5c-0.4-0.4-0.5-0.7-0.5-1.2v-1.7c0-0.5,0.2-0.9,0.5-1.2
								c0.3-0.4,0.7-0.6,1.2-0.6H512.4z M536.9,597.1c0.5,0,0.9,0.2,1.3,0.6c0.3,0.3,0.5,0.8,0.5,1.2v1.8c0,0.5-0.2,0.9-0.5,1.2
								c-0.3,0.3-0.8,0.5-1.3,0.5h-9.1c-0.5,0-0.9-0.2-1.2-0.5c-0.3-0.3-0.5-0.7-0.5-1.2v-1.8c0-0.4,0.2-0.8,0.5-1.2
								c0.3-0.4,0.7-0.6,1.2-0.6H536.9z"/>
						</g>
					</g>
				</g>
			</g>
			<g>
				<g>
					<g>
						<g>
							<path class="st1" d="M580.6,629.8c0.4-0.1,0.9,0,1.2,0.3c0.4,0.2,0.6,0.6,0.7,1.1l0.2,1.6c0,0.5-0.1,1-0.4,1.4
								c-0.3,0.3-0.6,0.6-1.2,0.8c-5.9,1.4-11.7,2.8-17.2,4c-0.5,0.1-0.9,0-1.3-0.2c-0.4-0.3-0.7-0.7-0.8-1.1l-0.5-2.3
								c-0.1-0.1-0.1-0.2-0.1-0.4c0-0.3,0.1-0.6,0.3-0.9c0.2-0.4,0.6-0.7,1.1-0.7c3-0.6,6.7-1.3,11-2.2c0,0,0.1,0,0.1-0.1
								c0,0,0,0-0.1,0c-0.3-0.1-0.5-0.2-0.7-0.5c-0.2-0.2-0.2-0.5-0.1-0.8c0.6-2.6,1-5.1,1.3-7.5c0-0.5,0.3-0.9,0.6-1.1
								c0.3-0.1,0.6-0.3,0.9-0.3c0.1,0,0.3,0,0.4,0l2.4,0.5c0.5,0.1,0.8,0.3,1.1,0.7c0.2,0.4,0.3,0.9,0.2,1.3c-1,3.3-1.6,5.6-2,6.6
								c0,0.1,0.1,0.1,0.1,0.1c0,0,0.1,0,0.1,0L580.6,629.8z M580.3,596.7c0.5,0,0.9,0.2,1.3,0.5c0.3,0.4,0.5,0.7,0.5,1.2v2
								c0,0.5-0.2,0.9-0.5,1.3c-0.3,0.3-0.8,0.5-1.3,0.5h-16.8c-0.4,0-0.9-0.2-1.2-0.5c-0.4-0.3-0.5-0.7-0.5-1.3v-2
								c0-0.5,0.1-0.8,0.5-1.2c0.3-0.3,0.8-0.5,1.2-0.5H580.3z M579.2,605.8c0.5,0,0.9,0.2,1.2,0.5c0.3,0.3,0.5,0.8,0.5,1.3v10.6
								c0,0.5-0.2,1-0.5,1.3c-0.3,0.3-0.7,0.5-1.2,0.5h-14.4c-0.4,0-0.8-0.2-1.2-0.5c-0.3-0.3-0.5-0.8-0.5-1.3v-10.6
								c0-0.5,0.2-0.9,0.5-1.3c0.4-0.3,0.8-0.5,1.2-0.5H579.2z M570.3,628.1c0.1,0.5-0.1,1-0.3,1.3c-0.3,0.5-0.7,0.7-1.2,0.8
								l-1.7,0.5c-0.4,0.1-0.9,0-1.2-0.2c-0.4-0.3-0.6-0.6-0.7-1.1c-0.2-1.9-0.5-3.7-1-5.5c-0.1-0.5-0.1-0.9,0.2-1.3
								c0.2-0.4,0.6-0.7,1-0.9l1.4-0.3c0.5-0.1,0.9-0.1,1.4,0.2c0.4,0.3,0.8,0.6,0.9,1.1C569.7,624.5,570.1,626.3,570.3,628.1z
								 M575.4,615.2c0.1,0,0.2-0.1,0.2-0.2v-4.3c0-0.2-0.1-0.2-0.2-0.2h-7c-0.1,0-0.3,0-0.3,0.2v4.3c0,0.2,0.1,0.2,0.3,0.2H575.4z
								 M587.9,632.9c0.4-0.4,0.9-0.6,1.4-0.6c0.1,0,0.2,0,0.2,0c0.4,0,0.8,0.2,1.2,0.4l2,1.2c0.4,0.3,0.5,0.6,0.6,1.1
								c0,0.4-0.1,0.8-0.4,1.1c-2.4,1.9-5.2,3.5-8.3,4.9c-0.3,0.1-0.6,0.2-0.9,0.2c-0.2,0-0.4,0-0.5-0.1c-0.5-0.2-0.9-0.4-1.3-0.7
								c-0.4-0.4-0.9-0.9-1.5-1.4c-0.2-0.2-0.3-0.5-0.3-0.7c0-0.5,0.2-0.9,0.6-1C583.4,636,585.8,634.5,587.9,632.9z M584.5,606.6
								c0-0.5,0.2-0.9,0.5-1.2c0.3-0.3,0.7-0.5,1.2-0.5h4.7c0.2,0,0.2-0.1,0.3-0.3c0.1-0.6,0.2-1.6,0.4-3c0-0.1-0.1-0.2-0.2-0.2
								h-6.4c-0.5,0-0.9-0.2-1.3-0.5c-0.3-0.4-0.5-0.8-0.5-1.2v-1.6c0-0.5,0.2-0.9,0.5-1.2c0.4-0.3,0.8-0.5,1.3-0.5h20.8
								c0.4,0,0.9,0.2,1.2,0.5c0.3,0.3,0.5,0.7,0.5,1.2v1.6c0,0.4-0.2,0.8-0.5,1.2c-0.3,0.3-0.8,0.5-1.2,0.5h-7.5
								c-0.2,0-0.2,0.1-0.3,0.2c-0.4,1.3-0.7,2.3-0.9,3c0,0.2,0,0.3,0.2,0.3h7.5c0.4,0,0.9,0.1,1.2,0.5c0.3,0.3,0.5,0.8,0.5,1.2
								v23.2c0,0.5-0.2,0.9-0.5,1.3c-0.3,0.3-0.7,0.5-1.2,0.5h-18.6c-0.5,0-0.9-0.2-1.2-0.5c-0.3-0.4-0.5-0.8-0.5-1.3V606.6z
								 M600.6,612.5c0.2,0,0.2-0.1,0.2-0.2v-2.7c0-0.2-0.1-0.2-0.2-0.2h-10.4c-0.1,0-0.2,0-0.2,0.2v2.7c0,0.2,0.1,0.2,0.2,0.2
								H600.6z M600.6,619.7c0.2,0,0.2-0.1,0.2-0.2v-2.7c0-0.1-0.1-0.2-0.2-0.2h-10.4c-0.1,0-0.2,0.1-0.2,0.2v2.7
								c0,0.2,0.1,0.2,0.2,0.2H600.6z M600.6,627.1c0.2,0,0.2-0.1,0.2-0.2v-2.8c0-0.1-0.1-0.2-0.2-0.2h-10.4c-0.1,0-0.2,0-0.2,0.2
								v2.8c0,0.1,0.1,0.2,0.2,0.2H600.6z M597.6,636.1c-0.3-0.3-0.4-0.7-0.4-1c0-0.4,0.2-0.7,0.5-1l1.6-1c0.4-0.2,0.9-0.4,1.4-0.4
								c0.5,0,1,0.1,1.5,0.5c2.3,1.6,4.2,3,5.7,4.2c0.3,0.3,0.4,0.6,0.4,1c0,0.5-0.2,0.9-0.6,1.1l-1.9,1.2c-0.4,0.3-0.8,0.4-1.2,0.4
								c-0.1,0-0.2,0-0.2,0c-0.5-0.1-1-0.3-1.4-0.6C601.7,639.1,599.8,637.6,597.6,636.1z"/>
						</g>
					</g>
				</g>
			</g>
		</g>
	</g>
	<g>
		<g>
			<path class="st1" d="M317.6,620.3c0,3.6-2.9,6.5-6.5,6.5s-6.5-2.9-6.5-6.5c0-3.6,2.9-6.5,6.5-6.5S317.6,616.7,317.6,620.3z"/>
		</g>
	</g>
</g>
<g>
	<g>
		<path class="st1" d="M574.1,693.6H50c-1.7,0-3.2,1.4-3.2,3.1c0,1.8,1.4,3.2,3.2,3.2h169.5c-0.1,1.3-0.4,5.9,0.6,11.4l-94.3,25.3
			c-1.7,0.5-2.7,2.2-2.2,3.9c0.4,1.4,1.6,2.3,3,2.3c0.3,0,0.6-0.1,0.8-0.1l94.3-25.3c1.2,3.2,2.9,6.2,5.3,9c1.8,2,3.8,3.6,6.1,4.9
			l-52.6,30.4c-1.5,0.9-2,2.8-1.1,4.3c0.6,1.1,1.6,1.6,2.7,1.6c0.5,0,1.1-0.1,1.6-0.5l57.3-33.1c2.2,0.5,4.6,0.7,7.1,0.7h13.4
			l-38.4,38.5c-1.3,1.3-1.3,3.3,0,4.5c0.6,0.6,1.4,0.9,2.2,0.9c0.8,0,1.6-0.3,2.2-0.9l42.9-43h10.6l-26.4,45.7
			c-0.9,1.5-0.4,3.5,1.2,4.3c0.5,0.3,1.1,0.5,1.6,0.5c1.1,0,2.2-0.6,2.8-1.6l28.2-48.9h6.8L282,784.4c-0.5,1.7,0.5,3.4,2.2,3.9
			c0.3,0.1,0.5,0.1,0.8,0.1c1.4,0,2.7-0.9,3-2.3l13.7-51.2h5.4v50.8c0,1.8,1.4,3.2,3.2,3.2c1.7,0,3.2-1.4,3.2-3.2v-50.8h5.4
			l13.7,51.2c0.4,1.4,1.7,2.3,3,2.3c0.3,0,0.6,0,0.9-0.1c1.7-0.5,2.7-2.2,2.2-3.9l-13.3-49.6h6.8l28.2,48.9c0.6,1,1.6,1.6,2.7,1.6
			c0.6,0,1.1-0.2,1.6-0.5c1.5-0.9,2-2.8,1.1-4.3l-26.4-45.7h10.6l44.5,44.5c0.6,0.6,1.4,0.9,2.2,0.9c0.8,0,1.6-0.3,2.2-0.9
			c1.2-1.2,1.2-3.3,0-4.5l-40-40h11.2c3.2,0,6-0.3,8.7-1l57.9,33.4c0.5,0.3,1,0.5,1.6,0.5c1.1,0,2.1-0.6,2.7-1.6
			c0.9-1.5,0.4-3.5-1.2-4.3l-53.8-31.1c1.9-1.2,3.6-2.6,5.1-4.3c2.6-2.9,4.3-6.2,5.4-9.5l96.2,25.8c0.3,0.1,0.6,0.1,0.8,0.1
			c1.4,0,2.7-0.9,3.1-2.3c0.5-1.7-0.5-3.5-2.2-3.9l-96.3-25.8c0.9-5.3,0.6-9.6,0.5-10.9h174.8c1.8,0,3.2-1.4,3.2-3.2
			C577.3,695,575.9,693.6,574.1,693.6 M387,721.7c-3.7,4.6-9.2,6.9-16.4,6.9H248.1c-7.1,0-12.6-2.3-16.3-6.9c-5.3-6.4-6-16-6-20.9
			h167.3C393.1,705.7,392.4,715.2,387,721.7"/>
	</g>
</g>
<g>
	<g>
		<path class="st1" d="M275.8,710.5h-41.1c-1.5,0-2.8,1.2-2.8,2.8c0,1.5,1.2,2.7,2.8,2.7h41.1c1.5,0,2.7-1.2,2.7-2.7
			C278.5,711.8,277.3,710.5,275.8,710.5"/>
	</g>
</g>
<g>
	<g>
		<path class="st1" d="M294.9,710.5h-8.2c-1.5,0-2.8,1.2-2.8,2.8c0,1.5,1.2,2.7,2.8,2.7h8.2c1.5,0,2.8-1.2,2.8-2.7
			C297.7,711.8,296.5,710.5,294.9,710.5"/>
	</g>
</g>
<g>
	<g>
		<g>
			<g>
				<g>
					<polygon class="st2" points="575.3,367.4 584.1,367.4 615.5,400.6 561,400.6 					"/>
				</g>
				<g>
					<path class="st3" d="M615.5,403.1H561c-0.8,0-1.6-0.4-2.1-1.1c-0.5-0.7-0.5-1.6-0.2-2.4l14.2-33.2c0.4-0.9,1.3-1.5,2.3-1.5h8.9
						c0.7,0,1.3,0.3,1.8,0.8l31.4,33.2c0.7,0.7,0.9,1.8,0.5,2.7C617.4,402.5,616.5,403.1,615.5,403.1z M564.8,398.1h44.9l-26.7-28.2
						h-6.2L564.8,398.1z"/>
				</g>
			</g>
		</g>
	</g>
	<g>
		<g>
			<g>
				<g>
					<polygon class="st2" points="544,367.4 552.9,367.4 584.2,400.6 529.8,400.6 					"/>
				</g>
				<g>
					<path class="st3" d="M584.2,403.1h-54.5c-0.8,0-1.6-0.4-2.1-1.1c-0.5-0.7-0.5-1.6-0.2-2.4l14.2-33.2c0.4-0.9,1.3-1.5,2.3-1.5
						h8.9c0.7,0,1.3,0.3,1.8,0.8l31.4,33.2c0.7,0.7,0.9,1.8,0.5,2.7C586.1,402.5,585.2,403.1,584.2,403.1z M533.5,398.1h44.9
						l-26.7-28.2h-6.2L533.5,398.1z"/>
				</g>
			</g>
		</g>
	</g>
	<g>
		<g>
			<line class="st2" x1="573.1" y1="372.4" x2="561" y2="400.6"/>
		</g>
		<g>
			
				<rect x="551.7" y="384" transform="matrix(0.394 -0.9191 0.9191 0.394 -11.5774 755.4018)" class="st3" width="30.7" height="5"/>
		</g>
	</g>
</g>
<g>
	<g>
		<g>
			<g>
				<g>
					<polygon class="st2" points="44,367.4 35.1,367.4 3.8,400.6 58.2,400.6 					"/>
				</g>
				<g>
					<path class="st3" d="M58.2,403.1H3.8c-1,0-1.9-0.6-2.3-1.5c-0.4-0.9-0.2-2,0.5-2.7l31.4-33.2c0.5-0.5,1.1-0.8,1.8-0.8H44
						c1,0,1.9,0.6,2.3,1.5l14.2,33.2c0.3,0.8,0.3,1.7-0.2,2.4C59.9,402.7,59.1,403.1,58.2,403.1z M9.6,398.1h44.9l-12.1-28.2h-6.2
						L9.6,398.1z"/>
				</g>
			</g>
		</g>
	</g>
	<g>
		<g>
			<g>
				<g>
					<polygon class="st2" points="75.3,367.4 66.4,367.4 35,400.6 89.5,400.6 					"/>
				</g>
				<g>
					<path class="st3" d="M89.5,403.1H35c-1,0-1.9-0.6-2.3-1.5c-0.4-0.9-0.2-2,0.5-2.7l31.4-33.2c0.5-0.5,1.1-0.8,1.8-0.8h8.9
						c1,0,1.9,0.6,2.3,1.5l14.2,33.2c0.3,0.8,0.3,1.7-0.2,2.4C91.2,402.7,90.4,403.1,89.5,403.1z M40.8,398.1h44.9l-12.1-28.2h-6.2
						L40.8,398.1z"/>
				</g>
			</g>
		</g>
	</g>
	<g>
		<g>
			<line class="st2" x1="46.2" y1="372.4" x2="58.2" y2="400.6"/>
		</g>
		<g>
			
				<rect x="49.7" y="371.1" transform="matrix(0.9192 -0.3939 0.3939 0.9192 -148.0007 51.7975)" class="st3" width="5" height="30.7"/>
		</g>
	</g>
</g>
</svg>
